<?xml version="1.0" encoding="utf-8"?>
<!-- Generator: Adobe Illustrator 22.1.0, SVG Export Plug-In . SVG Version: 6.00 Build 0)  -->
<svg version="1.1" id="图层_1" xmlns="http://www.w3.org/2000/svg" xmlns:xlink="http://www.w3.org/1999/xlink" x="0px" y="0px"
	 viewBox="0 0 200 200" style="enable-background:new 0 0 200 200;" xml:space="preserve">
<style type="text/css">
	.st0{fill:#454C51;}
</style>
<path class="st0" d="M151.1,101.9l28.7,28.7c0,6.3-5.2,11.5-11.5,11.5h-45.9v-11.5h40.2l-23-23H59.2l-23,23h40.2v11.5H30.5c-6.3,0-11.5-5.2-11.5-11.5l28.7-28.7L19,73.1c0-6.3,5.2-11.5,11.5-11.5h45.9v11.5H36.2l23,23h80.4l23-23h-40.2V61.7h45.9c6.3,0,11.5,5.2,11.5,11.5L151.1,101.9z M87.9,84.6h23V50.2h23L99.4,15.7L64.9,50.2h23V84.6z M110.9,119.1h-23v34.5h-23L99.4,188l34.5-34.5h-23V119.1z"/>
</svg>
