<?xml version="1.0" encoding="utf-8"?>
<!-- Generator: Adobe Illustrator 22.1.0, SVG Export Plug-In . SVG Version: 6.00 Build 0)  -->
<svg version="1.1" id="Capa_1" xmlns="http://www.w3.org/2000/svg" xmlns:xlink="http://www.w3.org/1999/xlink" x="0px" y="0px"
	 viewBox="0 0 489 489" style="enable-background:new 0 0 489 489;" xml:space="preserve">
<style type="text/css">
	.st0{fill:#454C51;}
</style>
<g>
	<g>
		<path class="st0" d="M463,260.5c0-0.5,0-1.1,0-1.6c-1.1-21.1-18.5-38-40-38c-17.3,0-31.9,10.9-37.5,26.2l-29-2.9
			c0-0.3,0-0.5,0-0.8c0-36.8-18-69.4-45.7-89.4l24.9-42c3.5,1,7.3,1.6,11.2,1.6c22,0,40-17.9,40-40c0-0.1,0-0.1,0-0.2
			c0-0.1,0-0.1,0-0.2c0-22-17.7-39.7-39.8-39.7H347h-0.1c-22,0-40,17.9-40,40c0,11,4.5,21,11.7,28.3l-24.9,42
			c-14.4-6.9-30.6-10.8-47.7-10.8c-28.1,0-53.6,10.4-73.1,27.6l-11.7-11c3.1-5.8,4.9-12.3,4.9-19.3c0-22-17.9-40-40-40h-0.1h-0.1
			c-22,0-39.8,17.7-39.8,39.7c0,0.1,0,0.1,0,0.2c0,0.1,0,0.1,0,0.2c0,22,17.9,40,40,40c7.8,0,15.1-2.2,21.3-6.1l11.6,11
			c-14.8,18.8-23.7,42.6-23.7,68.3c0,8.7,1,17.3,3,25.5l-41.9,14C89.5,272,77.1,264.7,63,264.7c-22,0-40,17.8-40,39.9v0.1v0.1
			c0,22,17.7,39.8,39.7,39.8c0.1,0,0.1,0,0.2,0c0.1,0,0.1,0,0.2,0c22,0,40-17.9,40-40c0-0.9,0-1.8-0.1-2.6l42-14
			c17.1,38.9,56,66,101.1,66c5,0,10-0.4,14.8-1l6.5,28.2c-12.8,6.7-21.6,20.1-21.6,35.5c0,22,17.9,40,40,40l0,0l0,0
			c2.8,0,5.4-0.3,8-0.8c18.3-3.7,31.9-19.9,31.9-39.1c0-21.7-17.4-39.4-39-40l-6.5-28.2c37.8-12.3,66.7-44.5,74.2-84.3l29,2.9
			c3,19.2,19.5,33.8,39.5,33.8c21.4,0,38.9-16.8,40-38c0-0.7,0.1-1.3,0.1-2.1l0,0l0,0C463,260.8,463,260.7,463,260.5z"/>
	</g>
</g>
</svg>
