<?xml version="1.0" encoding="utf-8"?>
<!-- Generator: Adobe Illustrator 22.1.0, SVG Export Plug-In . SVG Version: 6.00 Build 0)  -->
<svg version="1.1" id="图层_1" xmlns="http://www.w3.org/2000/svg" xmlns:xlink="http://www.w3.org/1999/xlink" x="0px" y="0px"
	 viewBox="0 0 256 256" style="enable-background:new 0 0 256 256;" xml:space="preserve">
<style type="text/css">
	.st0{fill:#454C51;}
</style>
<g>
	<path class="st0" d="M60.1,50.5c0,2.2,0.5,4.7,1.7,7.4h56.3c-5.5-8.3-10.2-14.9-14.1-19.9l9.9-9.1c10.5,3.9,20.1,8.3,29,13.2
		c3.3,1.7,3.8,5,1.7,9.9c-1.1,1.7-2.5,3.6-4.1,5.8h46.4L195,48l28.1,22.3l-12.4,10.8c-5.5,7.7-11.6,15.7-18.2,24l-13.2-3.3
		c0.5-1.7,1.1-3.8,1.7-6.6c1.1-2.8,2.5-8.3,4.1-16.5h-79.4l33.9,9.1c-1.1,3.3-3.3,8.6-6.6,15.7c-1.7,4.4-3,7.7-4.1,9.9h62.1
		l7.4-11.6L224,120l-9.1,14.1h-96.8c-16.5,30.3-40.6,57.7-72,81.9L32,206.1c23.7-22.6,41.4-46.6,53-72H34.5l-3.3-20.7h62.9
		c3.8-11,7.5-22.6,10.8-34.8H63.5c0,1.7,0.3,3.6,0.8,5.8c0,3.3,0.3,5.5,0.8,6.6c0,5-1.9,7.7-5.8,8.3c-6.1,1.1-12.4,1.7-19,1.7
		s-8.3-3.3-5-9.9c3.8-8.3,7.4-22.1,10.8-41.4L60.1,50.5z M82.5,197.8c8.3-2.2,15.4-6.9,21.5-14.1c9.4-12.7,17.6-28.4,24.8-47.2
		l31.4,13.2c-6.1,8.3-14.4,19-24.8,32.3c-5,6.1-8.6,10.5-10.8,13.2c3.3,0,8.3-0.3,14.9-0.8c13.2-0.5,23.2-1.1,29.8-1.7
		c-1.1-1.7-2.2-4.1-3.3-7.4c-2.2-5-5.8-11.6-10.8-19.9l15.7-8.3c11.6,11.6,24,26.8,37.2,45.5c2.8,3.8,3,7.4,0.8,10.8
		c-5,5-11,9.6-18.2,14.1c-4.4,3.3-7.4,1.9-9.1-4.1c-1.7-3.9-3.6-8.3-5.8-13.2c-38.6,6.1-67.3,11.3-86.1,15.7L82.5,197.8z"/>
</g>
</svg>
