<?xml version="1.0" encoding="utf-8"?>
<!-- Generator: Adobe Illustrator 22.1.0, SVG Export Plug-In . SVG Version: 6.00 Build 0)  -->
<svg version="1.1" id="图层_1" xmlns="http://www.w3.org/2000/svg" xmlns:xlink="http://www.w3.org/1999/xlink" x="0px" y="0px"
	 viewBox="0 0 200 200" style="enable-background:new 0 0 200 200;" xml:space="preserve">
<style type="text/css">
	.st0{fill:#454C51;}
</style>
<path class="st0" d="M39.8,49.2C41.9,62.8,44,65.9,44,79.4C44,87.7,28.4,95,28.4,95v10.4c0,0,15.6,7.3,15.6,15.6
	c0,13.5-2.1,16.6-4.2,30.2c-3.1,21.8,8.3,32.2,18.7,32.2s21.8,0,21.8,0v-20.8c0,0-18.7,2.1-18.7-10.4c0-9.4,2.1-9.4,4.2-30.2
	c1-9.4-5.2-16.6-11.4-21.8c6.2-5.2,12.5-11.4,11.4-20.8c-3.1-20.8-4.2-20.8-4.2-30.2c0-12.5,18.7-11.4,18.7-11.4V17
	c0,0-10.4,0-21.8,0S36.7,27.4,39.8,49.2z"/>
<path class="st0" d="M162.6,49.2c-2.1,13.5-4.2,16.6-4.2,30.2C158.4,87.7,174,95,174,95v10.4c0,0-15.6,7.3-15.6,15.6
	c0,13.5,2.1,16.6,4.2,30.2c3.1,21.8-8.3,32.2-18.7,32.2c-10.4,0-21.8,0-21.8,0v-20.8c0,0,18.7,2.1,18.7-10.4c0-9.4-2.1-9.4-4.2-30.2
	c-1-9.4,5.2-16.6,11.4-21.8c-6.2-5.2-12.5-11.4-11.4-20.8c2.1-20.8,4.2-20.8,4.2-30.2c0-12.5-18.7-11.4-18.7-11.4V17
	c0,0,10.4,0,21.8,0S165.7,27.4,162.6,49.2z"/>
</svg>
