<?xml version="1.0" encoding="utf-8"?>
<!-- Generator: Adobe Illustrator 22.1.0, SVG Export Plug-In . SVG Version: 6.00 Build 0)  -->
<svg version="1.1" id="图层_1" xmlns="http://www.w3.org/2000/svg" xmlns:xlink="http://www.w3.org/1999/xlink" x="0px" y="0px"
	 viewBox="0 0 200 200" style="enable-background:new 0 0 200 200;" xml:space="preserve">
<style type="text/css">
	.st0{fill:#454C51;}
</style>
<g id="图层_x0020_1">
	<path class="st0" d="M28.4,183.1c0.8-16.6,1.1-23.8,8.7-34c7.3,7.9,15.6,14.2,24.8,18.2c2,0.9,4.1,1.7,6.3,2.3
		C54.5,181.9,47.9,182.2,28.4,183.1L28.4,183.1z M102.8,72.4c-2.4,1.6-4.7,3.5-6.7,5.5c-3.3,3.3-5.9,7.1-7.3,11.1l9-8.7
		C99.6,78.5,101.6,74.8,102.8,72.4L102.8,72.4z M123.7,52.9c-3.6,0.6-6.6,1.4-9.2,2.5c2.8,0.8,5.4,1.6,9.2,2.7
		C123.7,56.4,123.7,54.7,123.7,52.9z M144.2,43.3l2.6,1.1l2-2c-2.8-1.3-5.9-2.5-9-3.6L144.2,43.3L144.2,43.3z M134.1,37.2
		c-5-1.2-10.3-2.1-15.9-2.5c3.4-2.6,10.8-4,15.9-5.2c-8.4-3.4-23.1-3.8-35.1,0c-0.7,2-2,5.2-3.6,6.7c-2.1,1.9-4.1,3.6-5.9,5.3
		c13.6-6,28.2-6.5,42.4-2.5L134.1,37.2L134.1,37.2z M39.8,36.5c1.6,10.6-2.7,27.8-3.5,29.9c-0.8,2.2-1.9,4.7-5.5,13.7
		c-3.6,9-3.3,26.2-0.9,31.6c-5.9-4.1-13.1-6.4-19.9-4c11.6,5.9,18.1,19,25.8,29c17.6,23.1,39.3,33.8,67.2,26.1
		c13.8-3.8,33.8-30.6,22-40.8c-20.4,11.5-42.4-3.2-43.3-25.7c-0.6-16.4,17.2-33,34.5-35.2c-7.1-2.1-9.5-3.2-18.6-1.8
		c8.2-6,14.3-10.7,28.3-12.1c0.9-1.6,2.2-2.7,3.6-3.8c-17.5-4.5-43-3.9-65.2,25.4C71,54.2,75.7,48.4,92.2,32.3
		c4.3-4.2,3.5-10.5,2.9-14.8C90.5,25.2,82,29.3,70.5,34.4c-8.8,3.9-16.7,10.3-22.6,18.4C46.4,46.5,45,40.9,39.8,36.5L39.8,36.5z
		 M123.4,156.6c2.1-0.9,4.1-1.8,6.2-2.7c-5.9,9.5-20,20.1-45.6,23.5c27.3,7.2,53.4,3.1,69.9-14c-1.3,2.3-2.7,4.8-4.2,7
		c20.2-11.7,46.4-45.9,27.6-78.9c3.2,2.6,5.8,5.7,8.1,10c0.1-15.7-4.6-30-13.7-41.2l-5.3,5.4l9.8,9.6L169,84
		c-3.6,4.3-5.9,4.3-10.4,4.4l-6.2,0c-0.1,2.1-1,4-2.5,5.4l-0.1,4.5c-0.1,4.3-2.6,8.6-6.9,9.9l0,0c-5.2,1.5-9.5,4.7-13.2,8.6
		c2.6,2.3,4.3,5.1,5.2,8.3c1.4,5.1,0.6,10.9-1.8,16.5C130.8,147.1,127.3,152.2,123.4,156.6L123.4,156.6z M88.7,97.4l13.2-12.7
		c2.7-2.6,6.6-9.1,8-13.9c0.3-1,1.6-1.9,3.4-2l8.7-0.2l0.5-1.5c0.3-0.8,0.6-0.9,1.4-0.9l5.6,0c0.3,0,0.5-0.2,0.5-0.5l0-12.4
		c0-2.4,0-3.7,1.9-5.2l4-3.3l10,10.2l25.5-25.1l1.6-6.2c0.6-2.4,2.3-2.3,4.2-0.7l6.1,5.3l5.3,6.1c1.6,1.9,1.7,3.6-0.7,4.2l-6.2,1.6
		l-25,25.5l10.2,10l-3.3,4c-1.6,1.9-2.8,1.9-5.2,1.9l-12.4,0c-0.3,0-0.5,0.2-0.5,0.5l0,5.6c0,0.7-0.1,1.1-0.9,1.4l-1.5,0.5l-0.2,8.7
		c0,1.8-0.9,3.1-2,3.4c-4.8,1.4-11.3,5.3-13.9,8l-6.9,7.2c-7.9,3.9-15.9,3.4-23-3c-4.1-3.7-7-8.8-8-14.5
		C88.9,98.7,88.8,98,88.7,97.4L88.7,97.4z"/>
</g>
</svg>
