<?xml version="1.0" encoding="utf-8"?>
<!-- Generator: Adobe Illustrator 24.1.2, SVG Export Plug-In . SVG Version: 6.00 Build 0)  -->
<svg version="1.1" id="图层_1" xmlns="http://www.w3.org/2000/svg" xmlns:xlink="http://www.w3.org/1999/xlink" x="0px" y="0px"
	 viewBox="0 0 33 32" style="enable-background:new 0 0 33 32;" xml:space="preserve">
<style type="text/css">
	.st0{fill-rule:evenodd;clip-rule:evenodd;stroke:#000000;stroke-width:0.8;stroke-miterlimit:10;}
</style>
<path class="st0" d="M30.5,31.2c-0.6,0-28.4,0-29,0c-0.7,0-1-0.3-1-1c0-6.8,0-13.7,0-20.5c0-0.7,0.3-0.9,1.1-0.9c3.3,0,6.7,0,10,0
	c0.2,0,0.5,0,0.7,0c0-0.1,0-0.1,0.1-0.2c-0.8-0.4-1.6-0.8-2.3-1.2C8.8,6.7,7.5,6,6.2,5.4C5.7,5.1,5.5,4.7,5.8,4.1
	c0.3-0.5,0.8-0.6,1.3-0.3c3,1.6,6,3.2,9,4.8c0.8,0.4,2.2,0.2,2.6-0.5c1.5-2.2,3.1-4.3,4.6-6.5c0.1-0.1,0.1-0.2,0.2-0.2
	C24,0.8,24.5,0.6,24.9,1c0.5,0.4,0.4,0.9,0.1,1.4c-0.6,0.9-1.2,1.8-1.9,2.6c-0.9,1.2-1.7,2.4-2.7,3.8c0.4,0,0.6,0,0.9,0
	c3.3,0,6.6,0,9.9,0c1,0,1.2,0.2,1.2,1.1c0,6.7,0,13.4,0,20.1c0,1-0.2,1.1-1.2,1.1C31,31.2,30.8,31.2,30.5,31.2 M30.5,10.8
	c-9.6,0-18.5,0-28,0c0,6.5,0,12.6,0,19c9.6,0,18.4,0,28,0C30.5,23.3,30.5,17.2,30.5,10.8z M12.1,17.1c0.1,0,0.1,0,0.4-0.1
	c0.1,0.1,0.5,0.3,0.5,0.6c0,0.3-0.1,0.8-0.3,0.9c-1.3,0.7-2.7,1.3-4,1.9c-0.4,0.2-0.9,0-1-0.4c-0.1-0.3,0.1-0.8,0.3-0.9
	C9.3,18.3,10.7,17.7,12.1,17.1z M12.5,21.6c0.3,0,0.6,0.3,0.8,0.6c0.1,0.2,0.1,0.6,0.2,0.8c0.2,0.5,0.6,1,1.1,0.9
	c0.4-0.1,0.8-0.5,1.1-0.8c0.1-0.2,0.1-0.5,0.2-0.8c0.1-0.5,0.4-0.8,0.8-0.8c0.4,0,0.7,0.3,0.8,0.7c0,0.3,0,0.7,0.2,0.9
	c0.3,0.3,0.7,0.7,1.1,0.7c0.3,0,0.7-0.4,1-0.7c0.2-0.2,0.2-0.6,0.2-0.9c0.1-0.5,0.4-0.8,0.9-0.7c0.5,0,0.7,0.4,0.7,0.8
	c0,1.3-0.5,2.3-1.7,2.8c-1.1,0.5-2.1,0.3-3-0.5c0,0-0.1-0.1-0.2-0.1c-0.3,0.2-0.5,0.4-0.8,0.6c-0.9,0.5-1.9,0.5-2.8-0.2
	c-1-0.7-1.4-1.6-1.3-2.8C11.8,21.9,12.2,21.6,12.5,21.6z M19.5,17c0.2-0.4,0.6-0.5,1-0.3c1.5,0.9,3,1.8,4.5,2.7
	c0.2,0.1,0.3,0.4,0.3,0.5c0,0.7-0.6,1.1-1.2,0.8c-1.5-0.9-3-1.8-4.5-2.7C19.3,17.8,19.2,17.4,19.5,17z"/>
</svg>
