<?xml version="1.0" encoding="utf-8"?>
<!-- Generator: Adobe Illustrator 22.1.0, SVG Export Plug-In . SVG Version: 6.00 Build 0)  -->
<svg version="1.1" id="图层_1" xmlns="http://www.w3.org/2000/svg" xmlns:xlink="http://www.w3.org/1999/xlink" x="0px" y="0px"
	 viewBox="0 0 32 34" style="enable-background:new 0 0 32 34;" xml:space="preserve">
<path d="M30.8,30.4c-0.3,0-0.5,0-0.8,0c-1-0.1-1.7,1-2,2.1c-0.3,1-1.4,1.6-2.5,1.5c-1.2-0.1-2-0.8-2.3-1.9C23.1,31.5,22.6,31,22,31
	c-4.2,0-7.8,0-12,0c-0.5,0-1,0.5-1.1,1c-0.3,1.2-1.3,2-2.5,2c-1.2,0-2.2-0.7-2.5-2c-0.1-0.5-0.4-1.6-0.9-1.6c-0.6,0-1.3,0-1.9,0
	c-0.7,0-1-0.3-1-1C0,22.6,0,15.8,0,9C0,8.2,0.3,8,1.2,8c3.3,0,6.7,0,10,0c0.2,0,0.5,0,0.7,0c0-0.1,0-0.1,0.1-0.2
	C11.2,7.4,10.4,7,9.6,6.6C8.3,5.9,7,5.3,5.7,4.6C5.2,4.3,5,3.9,5.3,3.4c0.3-0.5,0.8-0.6,1.3-0.3c3,1.6,6,3.2,9,4.8
	c0.8,0.4,2.2,0.2,2.6-0.5c1.5-2.2,3.1-4.3,4.6-6.5C22.9,0.7,23,0.7,23,0.6C23.5,0,24-0.2,24.4,0.2c0.5,0.4,0.4,0.9,0.1,1.4
	c-0.6,0.9-1.2,1.8-1.9,2.6C21.8,5.4,20.9,6.6,20,8c0.4,0,0.6,0,0.9,0c3.3,0,6.6,0,9.9,0c1,0,1.2,0.2,1.2,1.1c0,6.7,0,13.4,0,20.1
	C32,30.3,31.8,30.4,30.8,30.4z M25.8,32.4c0.5,0,0.8-1.4,0.9-2c-0.7,0-1.3,0-2,0C25,31,25.3,32.5,25.8,32.4z M6.3,32.4
	c0.6,0,0.9-1.4,1-2c-0.7,0-1.3,0-2,0C5.5,31,5.8,32.4,6.3,32.4z M30,10c-9.6,0-18.5,0-28,0c0,6.5,0,12.6,0,19c9.6,0,18.4,0,28,0
	C30,22.5,30,16.4,30,10z M4,13.9C4,13,4.4,12.1,5.4,12C12.5,12,19,12,26.2,12c0.9,0,1.8,1,1.8,1.9c0,4.4,0,7.8,0,12.2
	c0,0.9-0.9,1.9-1.8,1.9c-3.5,0-6.6,0-10.2,0s-6.6,0-10.2,0c-1,0-1.8-0.9-1.8-1.9C4,21.7,4,18.3,4,13.9z M26.3,26
	c0-4.2-0.1-8-0.1-12.1c-6.9,0-13.5,0-20.3,0c0,4.2,0,8,0,12.1C12.7,26,19.5,26,26.3,26z M11.6,16.3c0.1,0,0.1,0,0.4-0.1
	c0.1,0.1,0.5,0.3,0.5,0.6c0,0.3-0.1,0.8-0.3,0.9c-1.3,0.7-2.7,1.3-4,1.9c-0.4,0.2-0.9,0-1-0.4c-0.1-0.3,0.1-0.8,0.3-0.9
	C8.8,17.5,10.2,16.9,11.6,16.3z M12,20.8c0.3,0,0.6,0.3,0.8,0.6c0.1,0.2,0.1,0.6,0.2,0.8c0.2,0.5,0.6,1,1.1,0.9
	c0.4-0.1,0.8-0.5,1.1-0.8c0.1-0.2,0.1-0.5,0.2-0.8c0.1-0.5,0.4-0.8,0.8-0.8c0.4,0,0.7,0.3,0.8,0.7c0,0.3,0,0.7,0.2,0.9
	c0.3,0.3,0.7,0.7,1.1,0.7c0.3,0,0.7-0.4,1-0.7c0.2-0.2,0.2-0.6,0.2-0.9c0.1-0.5,0.4-0.8,0.9-0.7c0.5,0,0.7,0.4,0.7,0.8
	c0,1.3-0.5,2.3-1.7,2.8c-1.1,0.5-2.1,0.3-3-0.5c0,0-0.1-0.1-0.2-0.1c-0.3,0.2-0.5,0.4-0.8,0.6c-0.9,0.5-1.9,0.5-2.8-0.2
	c-1-0.7-1.4-1.6-1.3-2.8C11.3,21.2,11.8,20.8,12,20.8z M19,16.3c0.2-0.4,0.6-0.5,1-0.3c1.5,0.9,3,1.8,4.5,2.7
	c0.2,0.1,0.3,0.4,0.3,0.5c0,0.7-0.6,1.1-1.2,0.8c-1.5-0.9-3-1.8-4.5-2.7C18.9,17.1,18.8,16.7,19,16.3z"/>
</svg>
